<svg version="1.1" xmlns="http://www.w3.org/2000/svg" xmlns:xlink="http://www.w3.org/1999/xlink" width="64.17163" height="28.43829" viewBox="0,0,64.17163,28.43829"><g transform="translate(-305.80643,-200.69744)"><g data-paper-data="{&quot;isPaintingLayer&quot;:true}" fill-rule="nonzero" stroke-linecap="butt" stroke-linejoin="miter" stroke-miterlimit="10" stroke-dasharray="" stroke-dashoffset="0" style="mix-blend-mode: normal"><path d="M305.80643,229.13573v-28.43829h64.17163v28.43829z" fill="#e9f5f9" stroke="#ff0000" stroke-width="0"/><path d="M309.97232,215.11779c0,-4.48942 3.63939,-8.12881 8.12881,-8.12881c4.48942,0 8.12881,3.63939 8.12881,8.12881c0,4.48942 -3.63939,8.12881 -8.12881,8.12881c-4.48942,0 -8.12881,-3.63939 -8.12881,-8.12881z" fill="none" stroke="#00de9d" stroke-width="2"/><text transform="translate(336.0994,219.30927) scale(0.31917,0.31917)" font-size="40" xml:space="preserve" fill="#005292" fill-rule="nonzero" stroke="none" stroke-width="1" stroke-linecap="butt" stroke-linejoin="miter" stroke-miterlimit="10" stroke-dasharray="" stroke-dashoffset="0" font-family="Sans Serif" font-weight="normal" text-anchor="start" style="mix-blend-mode: normal"><tspan x="0" dy="0">青色</tspan></text><path d="M312.08501,215.19357c0,-3.34481 2.7115,-6.0563 6.0563,-6.0563c3.34481,0 6.0563,2.7115 6.0563,6.0563c0,3.34481 -2.7115,6.0563 -6.0563,6.0563c-3.34481,0 -6.0563,-2.7115 -6.0563,-6.0563z" fill="#00de9d" stroke="none" stroke-width="0"/></g></g></svg>