<svg version="1.1" xmlns="http://www.w3.org/2000/svg" xmlns:xlink="http://www.w3.org/1999/xlink" width="15.31149" height="22.91894" viewBox="0,0,15.31149,22.91894"><g transform="translate(-235.70053,-175.69182)"><g data-paper-data="{&quot;isPaintingLayer&quot;:true}" fill-rule="nonzero" stroke="none" stroke-linecap="butt" stroke-linejoin="miter" stroke-miterlimit="10" stroke-dasharray="" stroke-dashoffset="0" style="mix-blend-mode: normal"><path d="M235.70054,179.92175c0,-2.33613 1.92435,-4.22993 4.29817,-4.22993c2.37381,0 4.29817,1.89381 4.29817,4.22993c0,2.33613 -1.92435,4.22993 -4.29817,4.22993c-2.37381,0 -4.29817,-1.89381 -4.29817,-4.22993z" fill="#8a00ff" stroke-width="0"/><text transform="translate(244.53322,193.41244) scale(0.36923,0.37131)" font-size="40" xml:space="preserve" fill="#8a00ff" fill-rule="nonzero" stroke="none" stroke-width="1" stroke-linecap="butt" stroke-linejoin="miter" stroke-miterlimit="10" stroke-dasharray="" stroke-dashoffset="0" font-family="Sans Serif" font-weight="normal" text-anchor="start" style="mix-blend-mode: normal"><tspan x="0" dy="0">1</tspan></text><path d="M237.97453,179.92175c0,-1.11792 0.90626,-2.02417 2.02417,-2.02417c1.11792,0 2.02417,0.90626 2.02417,2.02417c0,1.11792 -0.90626,2.02417 -2.02417,2.02417c-1.11792,0 -2.02417,-0.90626 -2.02417,-2.02417z" fill="#849aff" stroke-width="0.5"/></g></g></svg>