<svg version="1.1" xmlns="http://www.w3.org/2000/svg" xmlns:xlink="http://www.w3.org/1999/xlink" width="258.11915" height="37.65981" viewBox="0,0,258.11915,37.65981"><g transform="translate(-190.93773,-161.17041)"><g data-paper-data="{&quot;isPaintingLayer&quot;:true}" fill-rule="nonzero" stroke-linejoin="miter" stroke-miterlimit="10" stroke-dasharray="" stroke-dashoffset="0" style="mix-blend-mode: normal"><path d="M196.66322,192.7236v-25.44719h246.67357v25.44719z" fill="#00bffc" stroke="#0090ff" stroke-width="0" stroke-linecap="butt"/><path d="M194.18773,188.34807v-15.12496" fill="none" stroke="#0080aa" stroke-width="6.5" stroke-linecap="round"/><path d="M445.79388,172.72421v15.12496" fill="none" stroke="#0080aa" stroke-width="6.5" stroke-linecap="round"/><path d="M194.28846,173.08354c-0.01401,-0.19036 -0.02113,-0.38265 -0.02113,-0.57659c0,-4.27032 3.45508,-7.73365 7.72225,-7.74704l59.26651,-0.33101h177.14829" fill="none" stroke="#0080aa" stroke-width="6.5" stroke-linecap="butt"/><path d="M437.93223,195.28246h-177.14829l-57.65339,0.2122c-0.1888,0.02809 -0.38002,0.04946 -0.57343,0.06385c-4.25854,0.31682 -7.96867,-2.87179 -8.29861,-7.12621" fill="none" stroke="#0080aa" stroke-width="6.5" stroke-linecap="butt"/><path d="M437.48629,164.43429c0.19052,-0.01161 0.38288,-0.01632 0.5768,-0.01388c4.26998,0.05366 7.68963,3.55199 7.64939,7.819" fill="none" stroke="#0080aa" stroke-width="6.5" stroke-linecap="butt"/><path d="M445.80705,187.25737c0.00697,0.19075 0.00699,0.38316 -0.00017,0.57698c-0.15766,4.26741 -3.73825,7.60081 -8.00302,7.45665" fill="none" stroke="#0080aa" stroke-width="6.5" stroke-linecap="butt"/><text transform="translate(284.0528,183.59472) scale(0.29956,0.29956)" font-size="40" xml:space="preserve" fill="#fcfcfc" fill-rule="nonzero" stroke="none" stroke-width="1" stroke-linecap="butt" stroke-linejoin="miter" stroke-miterlimit="10" stroke-dasharray="" stroke-dashoffset="0" font-family="Sans Serif" font-weight="normal" text-anchor="start" style="mix-blend-mode: normal"><tspan x="0" dy="0">点此关闭列表</tspan></text></g></g></svg>