<svg version="1.1" xmlns="http://www.w3.org/2000/svg" xmlns:xlink="http://www.w3.org/1999/xlink" width="754.74475" height="546.05106" viewBox="0,0,754.74475,546.05106"><defs><linearGradient x1="281.94356" y1="119.08133" x2="364.54562" y2="119.08133" gradientUnits="userSpaceOnUse" id="color-1"><stop offset="0" stop-color="#70f8ff" stop-opacity="0.75686"/><stop offset="1" stop-color="#4a83ff" stop-opacity="0.73333"/></linearGradient><linearGradient x1="351.61483" y1="82.60004" x2="370.64922" y2="82.60004" gradientUnits="userSpaceOnUse" id="color-2"><stop offset="0" stop-color="#87ffbb" stop-opacity="0.5098"/><stop offset="1" stop-color="#87fbff" stop-opacity="0.51765"/></linearGradient></defs><g transform="translate(62.45802,121.58707)"><g data-paper-data="{&quot;isPaintingLayer&quot;:true}" fill-rule="nonzero" stroke-linejoin="miter" stroke-miterlimit="10" stroke-dasharray="" stroke-dashoffset="0" style="mix-blend-mode: normal"><path d="M-14.65324,378.3001v-398.10169h669.30648v398.10169z" fill="#bcd6e6" stroke="none" stroke-width="0" stroke-linecap="butt"/><path d="M501.59604,4.28381c0,-52.65778 42.68756,-95.34534 95.34534,-95.34534c52.65778,0 95.34535,42.68756 95.34535,95.34534c0,52.65778 -42.68757,95.34535 -95.34535,95.34535c-52.65778,0 -95.34534,-42.68756 -95.34534,-95.34534z" fill="#91a0e6" stroke="none" stroke-width="0" stroke-linecap="butt"/><g stroke-width="0.5" stroke-linecap="round"><path d="M262.61282,334.51853l-3.76085,0.07096l1.34823,-2.90934l3.83181,-0.07096z" fill="#9800ff" stroke="#9800ff"/><path d="M263.92931,331.59222l2.62798,-0.05363l-1.03512,3.05088l-2.83837,0.14192z" fill="#ff00b8" stroke="#ff00b8"/><path d="M266.39641,331.6995l3.59336,-0.16089l-0.96538,3.05704l-3.59337,0.05363z" fill="#c600de" stroke="#c600de"/><path d="M262.64216,342.58686l0.05363,-8.04485l2.78888,0.05364l-0.10727,9.70745z" fill="#4700de" stroke="#4700de"/><path d="M265.43102,344.46399l-3.3252,0.1609l-2.52072,-1.98439l2.94978,-0.05363" fill="#005cff" stroke="#005cff"/><path d="M257.62707,342.5655l-1.62155,-1.87379l1.80172,-0.03603l1.87379,1.98189z" fill="#00a8ff" stroke="#00a8ff"/></g><path d="M283.04012,333.40531c1.46809,0.88085 2.10619,3.72322 1.44657,5.16554c-0.32525,0.71119 -0.70779,1.39265 -1.05991,2.09177c-0.1209,0.24005 -0.67302,0.60284 -0.4185,0.68923c1.03754,0.35215 4.20254,2.10917 1.17493,2.70801c-0.48791,0.09651 -1.14495,-0.27273 -1.63404,-0.2798c-6.42671,-0.0929 -2.03008,-2.50721 -0.63909,-5.56739c0.64248,-1.41347 0.29156,-2.63657 -0.7282,-2.05385c-0.21811,0.36957 -0.62042,0.6175 -1.08062,0.6175c-0.6925,0 -1.25389,-0.56139 -1.25389,-1.25389c0,-0.15986 0.02991,-0.31273 0.08445,-0.45332c0.12995,-1.41729 2.50553,-2.62546 4.1083,-1.6638z" fill="#000000" stroke="none" stroke-width="0.5" stroke-linecap="butt"/><path d="M288.26831,342.0746l-0.01653,-0.00945l-0.00897,-0.03589c-0.09429,-0.1761 -0.14776,-0.37733 -0.14776,-0.59105v-0.4402l-0.18361,-1.10165l-0.05818,-0.29091l-0.06076,-0.24304v-0.15436l-0.03744,-0.14975v-1.00159l-0.03056,-0.12224v-0.15436l-0.03744,-0.14975v-2.10792l0.04889,-0.19554l0.01546,-0.20097l0.068,-0.204l0.08992,-0.14129l0.05633,-0.15772l0.27199,-0.40799l0.18217,-0.1656l0.1656,-0.18217l0.10069,-0.06712l0.1162,-0.1162l0.07739,-0.04643l0.05691,-0.07005l0.27199,-0.20399l0.15251,-0.06421l0.13415,-0.09688l0.29156,-0.11662l0.22534,-0.11267l0.1348,-0.02996l0.12184,-0.06498l0.27199,-0.068h0.15436l0.14975,-0.03744h0.67998l0.14975,0.03744h0.15436l0.24305,0.06076l0.31073,0.06214l0.02763,0.01309h0.03057l0.27199,0.068l0.0761,0.04059l0.08547,0.01165l0.30578,0.12231l0.16903,0.05635l0.1413,0.08992l0.15772,0.05633l0.20399,0.13599l0.08401,0.09241l0.10709,0.06425l0.136,0.136l0.10371,0.17284l0.13117,0.15304l0.068,0.13599l0.01515,0.06817l0.01446,0.0241l-0.00221,0.00812l0.04063,0.06385l0.0149,0.04469l0.04285,0.06427l0.07217,0.20208l0.10098,0.18934l0.15132,0.60526l0.01552,0.02328l0.07217,0.20208l0.10098,0.18934l0.13599,0.54398v0.15436l0.03744,0.14975v0.04963l0.03056,0.12224v0.15436l0.03744,0.14975v1.22395l-0.03029,0.12116l0.00594,0.12475l-0.13599,0.67998l-0.04966,0.10483l-0.01567,0.11494l-0.09324,0.2331l-0.04542,0.2271l-0.01309,0.02763v0.03057l-0.27199,1.08796l-0.02314,0.04338l-0.00377,0.04902l-0.068,0.204l-0.08991,0.14129l-0.05633,0.15772l-0.04285,0.06428l-0.08289,0.24868l-0.08991,0.1413l-0.05633,0.15772l-0.09269,0.13904l-0.03309,0.06617l-0.05156,0.06016l-0.02665,0.07462l-0.13599,0.20399l-0.09241,0.08401l-0.06425,0.10709l-0.54398,0.54398l-0.17284,0.1037l-0.15304,0.13118l-0.4708,0.2354l-0.00699,0.01223l-0.03494,0.00873l-0.03125,0.01563l-0.28125,0.0625l-0.01696,0.00424l-0.00203,0.0013l-0.20399,0.06799l-0.20097,0.01546l-0.19554,0.04888h-0.53016l-0.01172,0.00782l-0.03515,-0.00782h-0.03494l-0.2795,-0.06988l-0.28125,-0.0625l-0.03125,-0.01563l-0.03494,-0.00874l-0.00699,-0.01223l-0.19881,-0.09941l-0.15304,-0.13118l-0.17284,-0.1037l-0.20399,-0.20399l-0.10371,-0.17284l-0.13117,-0.15304l-0.068,-0.136l-0.01515,-0.06817l-0.01446,-0.0241l0.00222,-0.00812l-0.04063,-0.06385l-0.08289,-0.24868l-0.04285,-0.06427l-0.07217,-0.20208l-0.01732,-0.03248c-0.23423,-0.10709 -0.42976,-0.28421 -0.55981,-0.50456zM291.32374,341.9388l0.20632,-0.10316l0.3123,-0.3123l0.02382,-0.03574l0.03309,-0.06617l0.05156,-0.06016l0.02665,-0.07462l0.04285,-0.06427l0.08289,-0.24868l0.08992,-0.1413l0.05633,-0.15772l0.04272,-0.06407l0.25288,-1.0115l0.06215,-0.31073l0.04966,-0.10484l0.01567,-0.11494l0.09324,-0.2331l0.08907,-0.44534v-0.94543l-0.03056,-0.12224v-0.15436l-0.03744,-0.14975v-0.04963l-0.04588,-0.18352l-0.01552,-0.02328l-0.07217,-0.20208l-0.10098,-0.18934l-0.15132,-0.60526l-0.01552,-0.02328l-0.05633,-0.15772l-0.03296,-0.0518l-0.01307,-0.00178l-0.26097,-0.10439l-0.16049,-0.04012l-0.31073,-0.06215l-0.02763,-0.01309h-0.03057l-0.12224,-0.03056h-0.3656l-0.14323,0.07162l-0.05194,0.01154l-0.04313,0.03115l-0.18601,0.07441l-0.06803,0.05102l-0.14098,0.14098l-0.10709,0.06425l-0.06963,0.0766v1.67405l0.03056,0.12224v0.15436l0.03744,0.14975v1.0016l0.03056,0.12224v0.03057l0.01309,0.02763l0.068,0.33998l-0.00099,0.02074l0.00828,0.01904l0.20301,1.21804l0.22565,0.26327l0.03309,0.06617l0.09269,0.13904l0.07217,0.20208l0.10098,0.18934l0.01532,0.06129l0.01552,0.02328l0.05633,0.15772l0.08992,0.1413l0.0052,0.01561z" fill="#000000" stroke="none" stroke-width="0.5" stroke-linecap="butt"/><path d="M303.76707,333.88782c1.09574,0.89471 1.78798,3.29175 1.45887,4.61502c-0.14118,0.56765 -0.4842,0.95157 -0.81118,1.40524c-0.1667,0.23129 -0.83028,0.55076 -0.56133,0.64535c1.04442,0.36731 4.40768,1.1554 1.38275,2.66786c-0.45117,0.22558 -1.94312,-0.24122 -2.35719,-0.25721c-6.12858,-0.23666 -2.34527,-2.29283 -0.10853,-5.0251c0.60717,-0.74169 -0.63919,-2.39566 -1.5973,-1.84817c-0.21811,0.36957 -0.62042,0.6175 -1.08062,0.6175c-0.6925,0 -1.25389,-0.56139 -1.25389,-1.25389c0,-0.31387 0.11532,-0.6008 0.30591,-0.82074c0.75861,-1.12257 3.3626,-1.77463 4.62251,-0.74586z" fill="#000000" stroke="none" stroke-width="0.5" stroke-linecap="butt"/><path d="M328.91861,335.68102c0.12861,0.63405 0.04909,1.362 0.18991,2.22976c0.19818,1.22125 0.10426,2.58605 0.11688,3.78105c0.00829,0.78435 0.26369,1.66151 0.07476,2.41722c-1.0752,4.30079 -7.84202,0.01051 -5.62168,-2.20983c1.59298,-1.59298 3.18296,3.10785 3.10714,0.37332c-0.04233,-1.52671 -0.01315,-3.11547 -0.20399,-4.64219c-0.06964,-0.55713 -0.35224,-1.68426 -0.24235,-2.36967c-0.5392,-0.0953 -1.06791,-0.17304 -1.56364,-0.1843c-0.01338,-0.0003 -0.02708,-0.00051 -0.04104,-0.00066c-0.67351,-0.02166 -1.21285,-0.57446 -1.21285,-1.25323c0,-0.45924 0.24688,-0.86081 0.61517,-1.07924c0.11783,-0.09322 0.27559,-0.15003 0.51495,-0.16861c0.04072,-0.00399 0.08201,-0.00603 0.12377,-0.00603c1.97142,-0.04477 3.94442,-0.04723 5.91578,0c1.39447,0.03341 1.46313,1.51486 0.62694,2.35104c-0.63166,0.63166 -1.47738,0.7806 -2.40569,0.73283c0.00203,0.0095 0.00401,0.01901 0.00595,0.02855z" fill="#000000" stroke="none" stroke-width="0.5" stroke-linecap="butt"/><path d="M331.13745,344.15811c0,-0.6925 0.56139,-1.25389 1.25389,-1.25389c0.6925,0 1.25389,0.56139 1.25389,1.25389c0,0.6925 -0.56139,1.25389 -1.25389,1.25389c-0.6925,0 -1.25389,-0.56139 -1.25389,-1.25389z" fill="#000000" stroke="none" stroke-width="0.5" stroke-linecap="butt"/><path d="M342.07698,335.61564c-0.25509,2.32886 3.63963,2.48209 4.28749,4.88207c0.63948,2.36893 -1.93223,4.61421 -4.1964,3.80558c-0.92266,-0.32952 -1.99064,-1.74878 -1.07566,-2.66376c0.4864,-0.4864 3.05029,0.99832 2.82863,-0.54183c-0.29516,-2.05082 -5.28252,-1.34755 -4.28749,-6.17579c0.36205,-1.75682 4.8751,-3.72875 5.83779,-2.04406c0.36957,0.21812 0.6175,0.62042 0.6175,1.08062c0,0.6925 -0.56139,1.25389 -1.25389,1.25389c-0.28965,0 -0.55636,-0.09821 -0.76865,-0.26315c-0.98705,0.20335 -1.94899,0.29832 -1.98931,0.66642z" fill="#000000" stroke="none" stroke-width="0.5" stroke-linecap="butt"/><path d="M350.50867,340.87021c0.0003,0.5702 1.74372,1.0138 1.90545,1.49899c0.37384,1.12151 0.14019,1.58881 -0.98132,1.96265c-0.93614,0.31205 -3.10715,-1.83537 -3.29953,-2.60487c-0.24669,-0.98674 -0.32928,-1.90706 -0.335,-2.84441c-0.12369,-0.12272 -0.23651,-0.26976 -0.33583,-0.44358c-0.36957,-0.21812 -0.6175,-0.62042 -0.6175,-1.08062c0,-0.45842 0.246,-0.85938 0.6132,-1.07807c0.09807,-0.07635 0.22572,-0.12725 0.41074,-0.15478c0.01491,-0.00276 0.02991,-0.00526 0.045,-0.00749c0.03744,-0.63309 0.07294,-1.30139 0.08702,-2.02353v0c0,-0.01191 0.00017,-0.02377 0.0005,-0.0356c0.01885,-0.67604 0.5728,-1.21829 1.25339,-1.21829c0.57841,0 1.06535,0.39165 1.2101,0.92422c0.56761,0.65219 0.6085,1.35434 0.49375,2.34738c2.46509,0.14402 1.31187,2.06737 -0.37088,2.9022c-0.04769,0.55619 -0.07944,1.17129 -0.07908,1.85582z" fill="#000000" stroke="none" stroke-width="0.5" stroke-linecap="butt"/><path d="M355.91905,341.54427c1.9912,-0.27793 0.56512,-3.5266 2.65139,-3.94385c1.47906,-0.29581 2.99183,6.72362 0.61198,6.72362c-1.0722,0 -1.06338,-0.50224 -1.21964,-1.11688c-0.13479,-0.53021 -0.91469,0.64127 -1.44373,0.78054c-0.87023,0.22909 -2.04006,-0.00453 -2.69819,-0.61894c-0.86662,-0.80905 -1.81598,-4.30909 -0.81887,-4.87886c0.21812,-0.36957 0.62042,-0.6175 1.08062,-0.6175c0.6925,0 1.25389,0.56139 1.25389,1.25389c0,0.25719 -0.07744,0.4963 -0.21026,0.69528c0.1973,0.92977 0.27806,1.79454 0.79282,1.72269z" fill="#000000" stroke="none" stroke-width="0.5" stroke-linecap="butt"/><path d="M366.3377,344.31744l-0.20399,0.13599l-0.15772,0.05633l-0.1413,0.08992l-0.40798,0.13599l-0.09917,0.00763l-0.09121,0.03966l-0.40798,0.068l-0.10447,-0.00836l-0.10167,0.02542h-0.20399l-0.12116,-0.03029l-0.12475,0.00594l-0.33999,-0.068l-0.07161,-0.03392l-0.079,-0.00608l-0.20399,-0.068l-0.06385,-0.04063l-0.00812,0.00221l-0.0241,-0.01446l-0.06817,-0.01515l-0.13599,-0.068l-0.15304,-0.13118l-0.17284,-0.1037l-0.13599,-0.13599l-0.06425,-0.10709l-0.09241,-0.08401l-0.13599,-0.20399l-0.05633,-0.15772l-0.08992,-0.1413l-0.0149,-0.04469l-0.04285,-0.06428l-0.05633,-0.15772l-0.08992,-0.1413l-0.068,-0.20399l-0.00377,-0.04902l-0.02314,-0.04338l-0.068,-0.27199v-0.15436l-0.03744,-0.14975v-0.81597l0.03744,-0.14975v-0.15436l0.16655,-0.66622v-0.11763l0.04889,-0.19555l0.01546,-0.20097l0.00365,-0.01096v-0.12269l-0.00781,-0.01172l0.00781,-0.03516v-0.03494l0.06988,-0.27951l0.03791,-0.17058l-0.00502,-0.0184l0.01446,-0.0241l0.01515,-0.06817l0.01562,-0.03125l0.00873,-0.03494l0.01223,-0.00699l0.03141,-0.06282l0.13118,-0.15304l0.1037,-0.17284l0.13599,-0.13599l0.17284,-0.1037l0.15304,-0.13118l0.06617,-0.03309l0.13904,-0.09269l0.04751,-0.01697l0.02108,-0.03689l0.27401,-0.0685l0.26599,-0.095l0.0159,0.00795l0.01451,-0.00484l0.04902,-0.00377l0.04338,-0.02314l0.27199,-0.068h0.15436l0.14975,-0.03744h1.22395c0.0828,0 0.16374,0.00803 0.24205,0.02334v-1.1612l-0.04365,-0.21824l0.00594,-0.12475l-0.03029,-0.12116v-0.11763l-0.03056,-0.12224v-0.15436l-0.03744,-0.14975v-0.45762l-0.09856,-0.39423v-0.17058l-0.04525,-0.20363l0.04525,-0.06788v-0.20416l0.3769,-0.3612l0.27879,-0.41819l0.14894,0.00827l0.1077,-0.10321l0.36496,0.10264l0.00715,-0.00409l0.02102,0.01201l0.0907,0.02551l0.52123,0.02896l0.13286,0.15501l0.07853,0.02209l0.09816,0.18405l0.11101,0.12951l0.03141,0.06282l0.01223,0.00699l0.00873,0.03494l0.01562,0.03125l0.02672,0.12023l0.00022,0.00042l0.03461,0.13846l0.00644,0.01288l0.02577,0.11596l0.03579,0.14315l0.00644,0.01288l0.02577,0.11596l0.00117,0.00469v0.00059l0.03556,0.16001l0.06988,0.27951v0.03494l0.00781,0.03516l-0.00781,0.01172v0.10381l0.03056,0.12224v0.15436l0.03744,0.14975v0.6442l0.04761,0.28568l0.06403,0.32016l-0.00594,0.12475l0.03029,0.12116v5.16832l0.00365,0.01096l0.01546,0.20097l0.04889,0.19555v0.13599l0.068,0.27199v0.03494l0.00781,0.03516l-0.00781,0.01172v0.19069l0.00365,0.01096l0.01546,0.20097l0.04889,0.19555v0.13599l-0.01788,0.07153l0.0031,0.0403l-0.01828,0.02044l-0.12367,0.49468l-0.6526,0.37291l-0.04804,0.05369l-0.03401,-0.0068l-0.3625,0.20714l-0.75289,-0.43022l-0.08971,-0.01794l-0.03332,-0.05236l-0.22124,-0.12642l-0.0911,-0.36439l-0.00129,-0.00203l-0.0314,-0.09419zM364.70857,340.31219l-0.07552,0.01888l-0.0351,0.0117l-0.01015,0.13201l-0.00365,0.01096v0.06851l-0.03744,0.14975v0.15436l-0.16655,0.66622v0.50725l0.01868,0.07473l0.04272,0.06408l0.05633,0.15772l0.01677,0.02635l0.01684,0.00337l0.19552,-0.03259l0.1105,-0.03683l0.12604,-0.18906l0.06123,-0.12246l0.03982,-0.11945l0.08992,-0.1413l0.05633,-0.15772l0.17885,-0.26827l0.0149,-0.04469l0.08992,-0.1413l0.05633,-0.15772l0.06992,-0.10488l0.1324,-0.52961z" fill="#000000" stroke="none" stroke-width="0.5" stroke-linecap="butt"/><path d="M370.37206,335.79442c0,-0.6925 0.56139,-1.25389 1.25389,-1.25389c0.6925,0 1.25389,0.56139 1.25389,1.25389c0,0.6925 -0.56139,1.25389 -1.25389,1.25389c-0.6925,0 -1.25389,-0.56139 -1.25389,-1.25389z" fill="#000000" stroke="none" stroke-width="0.5" stroke-linecap="butt"/><path d="M371.69394,337.73641c0.39156,0.22375 0.74492,1.02963 0.97825,2.03835c-0.22981,0.28621 -0.58263,0.46943 -0.97825,0.46943c-0.6925,0 -1.25389,-0.56139 -1.25389,-1.25389c0,-0.6925 0.56139,-1.25389 1.25389,-1.25389c0.6925,0 1.25389,0.56139 1.25389,1.25389c0,0.29689 -0.10318,0.56968 -0.27564,0.78446c0.52524,2.27069 0.44228,5.56924 -1.18224,5.56924c-1.25795,0 -1.63071,-6.55919 -0.87663,-6.99009z" fill="#000000" stroke="none" stroke-width="0.5" stroke-linecap="butt"/><path d="M375.78113,343.91053l-0.01653,-0.00945l-0.00897,-0.0359c-0.09429,-0.1761 -0.14776,-0.37733 -0.14776,-0.59105v-0.20451l-0.13965,-0.41894l-0.00377,-0.04902l-0.02314,-0.04338l-0.05632,-0.22527l-0.05277,-0.15831l-0.01546,-0.20097l-0.04889,-0.19555v-0.04963l-0.01888,-0.07552l-0.05277,-0.15831l-0.01546,-0.20097l-0.04889,-0.19555v-1.08796l0.01224,-0.04894l-0.019,-0.038l0.095,-0.26599l0.0685,-0.27401l0.03689,-0.02108l0.01697,-0.04751l0.13599,-0.20399l0.02636,-0.02397l0.01383,-0.03284l0.61198,-0.81597l0.16477,-0.13388l0.14281,-0.15709l0.10069,-0.06712l0.0482,-0.0482l0.14671,-0.08802l0.0016,-0.00568l0.03406,-0.01817l0.14351,-0.12301l0.13599,-0.068l0.06817,-0.01515l0.0241,-0.01446l0.0184,0.00502l0.02413,-0.00536l0.12184,-0.06498l0.27199,-0.068h0.15436l0.14975,-0.03744h0.32162l0.12224,-0.03056h0.15436l0.14975,-0.03744h1.21014l0.01172,-0.00781l0.03516,0.00781h0.03494l0.27951,0.06988l0.28125,0.0625l0.03125,0.01562l0.03494,0.00873l0.00699,0.01223l0.19881,0.09941l0.06016,0.05156l0.07462,0.02665l0.20399,0.13599l0.08401,0.09241l0.10709,0.06425l0.25219,0.25219l0.30468,0.20312l0.08401,0.09241l0.10709,0.06425l0.40798,0.40798l0.1037,0.17284l0.13118,0.15304l0.27199,0.54398l0.01958,0.0881l0.04845,0.07614l0.068,0.20399l0.01546,0.20097l0.04889,0.19555v0.00051l0.00365,0.01096l0.00377,0.04902l0.02314,0.04338l0.068,0.27199v0.15436l0.03744,0.14975v0.66616l0.00781,0.01172l-0.00781,0.03516v0.03494l-0.06988,0.27951l-0.0625,0.28125l-0.01562,0.03125l-0.00873,0.03494l-0.00875,0.005l-0.03485,0.10456l-0.04845,0.07614l-0.01958,0.0881l-0.068,0.13599l-0.05156,0.06016l-0.02665,0.07462l-0.09269,0.13904l-0.03309,0.06617l-0.13118,0.15304l-0.1037,0.17284l-0.0482,0.0482l-0.06712,0.10069l-0.09241,0.08401l-0.06425,0.10709l-0.78197,0.78197l-0.102,0.16999l-0.27199,0.27199l-0.21212,0.12727l-0.04757,0.08325l-0.1563,0.03908l-0.13815,0.08289l-0.07946,-0.02167l-0.05237,0.01164l-0.07614,0.04845l-0.20399,0.068l-0.16502,0.01269l-0.22397,0.04977l-0.27951,0.06988h-0.03494l-0.03516,0.00781l-0.00294,-0.00196l-0.09883,0.02471h-0.15436l-0.14975,0.03744h-0.39417l-0.01172,0.00781l-0.03516,-0.00781h-0.03494l-0.27951,-0.06988l-0.17058,-0.03791l-0.0184,0.00502l-0.0241,-0.01446l-0.06817,-0.01515l-0.03125,-0.01562l-0.03494,-0.00873l-0.00699,-0.01223l-0.06282,-0.03141l-0.15304,-0.13118l-0.17284,-0.1037l-0.16999,-0.16999l-0.16999,-0.102l-0.03644,-0.03644l-0.04986,-0.00277l-0.16176,-0.18872l-0.18872,-0.16176l-0.00347,-0.06246l-0.06662,-0.07773l-0.068,-0.13599l-0.00573,-0.02578c-0.32675,-0.08346 -0.60216,-0.29528 -0.76935,-0.57856zM378.93754,343.34964h0.15436l0.14975,-0.03744h0.068l0.00944,-0.00236l0.00203,-0.00129l0.10456,-0.03485l0.005,-0.00875l0.03494,-0.00873l0.03125,-0.01562l0.05336,-0.01186l0.09675,-0.16125l0.72818,-0.72818l0.06712,-0.10069l0.09241,-0.08401l0.06425,-0.10709l0.02868,-0.02868l0.01865,-0.05221l0.08818,-0.13227l0.03756,-0.11269l0.00365,-0.00574v-0.32735l-0.01888,-0.07552l-0.05277,-0.15831l-0.01546,-0.20097l-0.03688,-0.14752l-0.12862,-0.25724l-0.17631,-0.17631l-0.30468,-0.20312l-0.08401,-0.09241l-0.10709,-0.06425l-0.24472,-0.24472h-0.82221l-0.12224,0.03056h-0.15436l-0.14975,0.03744h-0.26861l-0.05582,0.0614l-0.02528,0.01686l-0.36833,0.4911v0.48918l0.00365,0.01096l0.00377,0.04902l0.02314,0.04338l0.068,0.27199v0.15436l0.03744,0.14975v0.00051l0.00365,0.01096l0.00377,0.04902l0.02314,0.04338l0.05632,0.22527l0.18876,0.56629l0.01546,0.20097l0.04889,0.19555v0.02193l0.26303,0.01461l0.23818,0.27788l0.1515,0.0909l0.09637,0.09637z" fill="#000000" stroke="none" stroke-width="0.5" stroke-linecap="butt"/><path d="M309.6932,342.34407c1.04006,-0.69338 1.73344,0.34669 1.73344,0.34669l0.0073,0.18429c2.63966,1.90092 3.56009,-0.47276 1.63954,-2.47095c-0.10771,-0.11207 -0.29042,-0.22776 -0.51296,-0.34092l-0.91393,0.13056c-0.06451,0.01027 -0.13066,0.0156 -0.19806,0.0156c-0.69036,0 -1.25,-0.55964 -1.25,-1.25c0,-0.58089 0.39623,-1.06923 0.93317,-1.2095l0.98099,-0.28028c0.20025,-0.27455 0.32661,-1.23558 0.22187,-1.34316c-0.28198,-0.28964 -2.13517,0.25852 -2.51754,0.44204c0,0 -1.14893,0.4924 -1.64133,-0.65653c-0.4924,-1.14893 0.65653,-1.64133 0.65653,-1.64133c2.62639,-1.04572 7.53885,-0.30897 5.92606,3.84511c-0.03907,0.10064 -0.08847,0.19487 -0.14584,0.28414c0.50157,0.50643 0.90673,1.13598 1.13447,1.58257c1.31527,2.57905 1.12134,5.88403 -2.34292,6.06765c-1.8916,0.10026 -1.9595,-0.20815 -3.35681,-1.09487l-0.70067,-0.87766c0,0 -0.69338,-1.04006 0.34669,-1.73344z" fill="#000000" stroke="none" stroke-width="0.5" stroke-linecap="butt"/><path d="M408.39633,380.54956l0.02359,-201.35064c2.80746,-30.7084 28.32858,-54.84844 59.61888,-55.47563l172.34323,-0.44698" fill="none" stroke="#91bebb" stroke-width="12.5" stroke-linecap="butt"/><path d="M551.91629,166.45116v202.81828" fill="none" stroke="#91bebb" stroke-width="12.5" stroke-linecap="round"/><path d="M437.90614,264.86009h228.02054" fill="none" stroke="#91bebb" stroke-width="12.5" stroke-linecap="round"/><path d="M548.75079,161.31735c5.23601,-5.23601 10.47199,0 10.47199,0l1.43427,1.5395c3.21538,4.30654 6.13997,8.84373 8.76001,13.53641c0,0 3.59617,6.473 -2.87681,10.06906c-6.473,3.59609 -10.06906,-2.87681 -10.06906,-2.87681c-2.27347,-4.1155 -4.83139,-8.08844 -7.66173,-11.84278l-0.05865,0.04669c0,0 -5.23601,-5.23601 0,-10.47199z" fill="#91bebb" stroke="none" stroke-width="0.5" stroke-linecap="butt"/><path d="M641.30988,246.41204c5.23601,-5.23601 10.47199,0 10.47199,0l-0.14701,0.25592c7.07141,3.92852 13.76369,7.64611 20.25436,12.49224c0,0 5.92386,4.4429 1.48096,10.36676c-4.4429,5.92386 -10.36676,1.48096 -10.36676,1.48096c-5.92624,-4.46759 -12.07735,-7.79205 -18.56073,-11.39395l-3.13284,-2.72991c0,0 -5.23601,-5.23601 0,-10.47199z" fill="#91bebb" stroke="none" stroke-width="0.5" stroke-linecap="butt"/><path d="M657.56262,219.75809c8.85319,2.17618 6.67711,11.02936 6.67711,11.02936l-1.86775,6.6203c-12.28901,24.3236 -25.95604,61.03355 -47.25997,78.56389c-43.8926,36.11776 -69.07966,-11.98616 -73.08965,-51.3451c-1.62359,-8.37737 -1.75661,-10.43833 -4.55983,-18.82874c-4.09924,-12.2697 -20.88029,-38.48956 -36.52436,-19.43591c-17.06821,20.78829 -30.96844,52.60603 -37.34569,78.6072c0,0 -2.17618,8.85319 -11.02936,6.67711c-8.85319,-2.17618 -6.67711,-11.02936 -6.67711,-11.02936c6.28437,-25.51406 25.79092,-83.38701 51.81443,-94.79018c40.3553,-17.68312 56.62271,26.51773 62.35969,56.13494c0.39538,3.84591 1.38455,15.3475 2.50929,19.40099c7.41538,26.72384 26.31716,41.38258 47.22732,13.93514c14.59783,-19.16159 25.44259,-44.62021 36.30091,-66.11213l0.4357,-2.75034c0,0 2.17618,-8.85319 11.02936,-6.67711z" fill="#91bebb" stroke="none" stroke-width="0.5" stroke-linecap="butt"/><path d="M446.87688,-49.63962v-1.5015h1.5015v1.5015z" fill="#888888" stroke="none" stroke-width="0" stroke-linecap="butt"/><path d="M36.64108,344.8844c0,-38.97505 31.59552,-70.57057 70.57057,-70.57057c38.97505,0 70.57057,31.59552 70.57057,70.57057c0,38.97505 -31.59552,70.57057 -70.57057,70.57057c-38.97505,0 -70.57057,-31.59552 -70.57057,-70.57057z" fill="#91b5e6" stroke="none" stroke-width="0" stroke-linecap="butt"/><path d="M-62.45802,329.11864c0,-52.65778 42.68757,-95.34535 95.34535,-95.34535c52.65778,0 95.34535,42.68757 95.34535,95.34535c0,52.65778 -42.68757,95.34535 -95.34535,95.34535c-52.65778,0 -95.34535,-42.68757 -95.34535,-95.34535z" fill="#91c5e6" stroke="none" stroke-width="0" stroke-linecap="butt"/><path d="M427.52697,-26.24172c0,-52.65778 42.68757,-95.34535 95.34535,-95.34535c52.65778,0 95.34534,42.68757 95.34534,95.34535c0,52.65778 -42.68756,95.34534 -95.34534,95.34534c-52.65778,0 -95.34535,-42.68756 -95.34535,-95.34534z" fill="#91c5e6" stroke="none" stroke-width="0" stroke-linecap="butt"/><path d="M316.60932,134.40807c-0.06249,0.73219 -0.49106,3.24323 -3.43071,3.24323c-3.44138,0 -3.44136,-3.44138 -3.44136,-3.44138l0.49043,-2.52554c1.35933,-2.25195 2.56083,-4.61228 3.53067,-7.05742c0,0 0.14995,-0.37491 0.47556,-0.81647c-0.12605,-0.05731 -0.24908,-0.11464 -0.36881,-0.17208c-4.9959,1.97269 -6.81899,9.65982 -6.31667,14.81766c0.01614,0.16556 0.95005,3.50318 1.20788,6.11376c1.65106,-1.34632 3.97613,-2.82853 5.14716,-3.86424c3.69657,-3.26934 6.74768,-6.47484 6.74524,-10.97208c-0.42037,-0.1899 -0.85121,-0.47776 -1.19144,-0.91421c-0.84589,1.91221 -1.80319,3.77796 -2.84795,5.58879zM314.53115,149.01025c-1.84603,1.43835 -7.36969,5.80531 -9.3757,5.02415c-2.0209,-0.78698 -3.24737,-7.81429 -3.66674,-10.14419c-1.90087,-10.56166 0.26033,-23.93205 11.67993,-27.18174c2.47218,-4.41793 6.80076,-9.98983 8.14634,-11.35655c2.663,-2.70481 5.39575,-5.39859 8.1217,-8.12124c-0.66502,-0.68212 -1.18375,-1.7617 -0.64818,-3.36841c1.08827,-3.26476 4.35302,-2.17653 4.35302,-2.17653l3.61013,1.58634c1.85979,1.88486 4.0042,3.51178 6.28174,4.86253c1.51367,1.70692 4.39185,2.84425 4.54109,5.12078c0.13107,1.99954 -2.71434,2.9586 -3.90578,4.5698c-2.81406,3.80547 -11.94723,17.39181 -16.40504,19.02167c1.40342,9.91041 -5.19243,16.28852 -12.73251,22.1634zM335.27119,101.12796c-0.01899,0.02038 -0.02952,0.03094 -0.02952,0.03094c-3.57635,3.56711 -8.16663,7.38273 -10.90242,11.56664c-0.89167,1.36361 -2.49327,3.99144 -3.8817,5.7231c1.86261,0.69148 4.08753,2.08409 4.32758,1.97676c1.15638,-0.517 4.37298,-6.90582 5.42333,-8.09991c2.29497,-2.60913 11.70526,-9.55175 8.98442,-8.47918c-1.35786,-0.82317 -2.66934,-1.73321 -3.92168,-2.7183z" fill="#00c1ff" stroke="none" stroke-width="0.5" stroke-linecap="butt"/><path d="M294.15564,149.9079v-57.16127h57.85887v57.16127z" fill="#00c1ff" stroke="none" stroke-width="0" stroke-linecap="butt"/><path d="M276.70583,92.81868c0,-9.514 7.80678,-17.22671 17.43693,-17.22671c9.63015,0 17.43693,7.71269 17.43693,17.22671c0,9.514 -7.80682,17.22671 -17.43693,17.22671c-9.63015,0 -17.43693,-7.71265 -17.43693,-17.22671z" fill="#676767" stroke="none" stroke-width="0" stroke-linecap="butt"/><path d="M334.50474,92.81868c0,-9.51407 7.80675,-17.22671 17.43693,-17.22671c9.63015,0 17.43691,7.71262 17.43691,17.22671c0,9.51407 -7.80677,17.22671 -17.43691,17.22671c-9.63017,0 -17.43693,-7.71265 -17.43693,-17.22671z" fill="#676767" stroke="none" stroke-width="0" stroke-linecap="butt"/><path d="M276.45177,150.38775c0,-9.51407 7.80675,-17.22671 17.43691,-17.22671c9.63017,0 17.43691,7.71262 17.43691,17.22671c0,9.51407 -7.80675,17.22669 -17.43691,17.22669c-9.63017,0 -17.43691,-7.71269 -17.43691,-17.22669z" fill="#676767" stroke="none" stroke-width="0" stroke-linecap="butt"/><path d="M334.47254,150.38775c0,-9.51407 7.80675,-17.22671 17.43693,-17.22671c9.63015,0 17.43693,7.71262 17.43693,17.22671c0,9.51407 -7.80675,17.22669 -17.43693,17.22669c-9.63017,0 -17.43693,-7.71269 -17.43693,-17.22669z" fill="#676767" stroke="none" stroke-width="0" stroke-linecap="butt"/><path d="M294.02214,167.70512v-92.14963h57.77709v92.14968z" fill="#676767" stroke="none" stroke-width="0" stroke-linecap="butt"/><path d="M276.63078,148.83038v-56.99554h92.85953v56.99554z" fill="#676767" stroke="none" stroke-width="0" stroke-linecap="butt"/><path d="M322.65432,85.68702v70.69435" fill="none" stroke="#ffffff" stroke-width="4" stroke-linecap="round"/><path d="M282.91495,121.10681h79.47885" fill="none" stroke="#ffffff" stroke-width="4" stroke-linecap="round"/><path d="M321.55094,83.89757c1.82506,-1.82507 3.65011,0 3.65011,0l0.49993,0.5366c1.12075,1.5011 2.14016,3.08256 3.05341,4.71826c0,0 1.25348,2.25624 -1.00274,3.50968c-2.25624,1.25346 -3.50968,-1.00274 -3.50968,-1.00274c-0.79245,-1.4345 -1.68403,-2.8193 -2.67057,-4.12792l-0.02043,0.01627c0,0 -1.82506,-1.82506 0,-3.65011z" fill="#ffffff" stroke="none" stroke-width="0.5" stroke-linecap="butt"/><path d="M353.81338,113.55818c1.82506,-1.82507 3.65011,0 3.65011,0l-0.05124,0.08921c2.46481,1.36932 4.79747,2.66511 7.05986,4.35429c0,0 2.06482,1.54862 0.5162,3.61344c-1.54862,2.06482 -3.61343,0.5162 -3.61343,0.5162c-2.06565,-1.55722 -4.20968,-2.71598 -6.46954,-3.97147l-1.09199,-0.95154c0,0 -1.82506,-1.82507 0,-3.65013z" fill="#ffffff" stroke="none" stroke-width="0.5" stroke-linecap="butt"/><path d="M361.9359,101.90929c3.34187,0.82147 2.52046,4.16334 2.52046,4.16334l-0.70503,2.49901c-4.63882,9.18161 -9.79782,23.03878 -17.83957,29.65608c-16.56847,13.63363 -26.076,-4.52449 -27.58969,-19.3816c-0.61286,-3.16227 -0.66307,-3.94022 -1.72123,-7.10743c-1.54737,-4.63153 -7.88183,-14.52893 -13.78712,-7.3366c-6.44285,7.8471 -11.68989,19.85758 -14.09715,29.67242c0,0 -0.82147,3.34187 -4.16334,2.52046c-3.34187,-0.82147 -2.52046,-4.16333 -2.52046,-4.16333c2.3722,-9.63098 9.73548,-31.47671 19.55875,-35.78114c15.2332,-6.67498 21.37377,10.00982 23.53937,21.18966c0.14924,1.45176 0.52264,5.79333 0.9472,7.32343c2.79914,10.08764 9.93413,15.62098 17.82723,5.2602c5.51036,-7.23307 9.60399,-16.84311 13.70276,-24.95582l0.16446,-1.0382c0,0 0.82147,-3.34187 4.16334,-2.52046z" fill="url(#color-1)" stroke="none" stroke-width="0.5" stroke-linecap="butt"/><path d="M353.43527,82.60004h15.39352" fill="none" stroke="url(#color-2)" stroke-width="21.5" stroke-linecap="round"/><path d="M357.13036,77.18109c0.77084,0.63292 0.30834,1.68779 0.30834,1.68779l-0.162,0.32301c-0.48465,1.85368 -0.97473,6.97097 -2.80627,7.3149c-2.93143,0.55046 -2.11464,-10.53158 -3.94332,-4.44421c-0.13136,0.4373 -0.27814,0.87201 -0.35316,1.33353c-0.09082,0.55884 -0.09396,1.13775 -0.14094,1.70661c0,0 -0.10503,1.22176 -0.99781,1.07803c-0.89278,-0.14373 -0.78775,-1.36549 -0.78775,-1.36549c0.18489,-2.08013 0.9729,-8.0603 3.43032,-7.46446c1.31426,0.31868 1.93766,2.92862 2.21487,4.36936c0.07708,0.40061 0.12585,0.81175 0.21671,1.2069c0.04997,0.21732 0.11382,0.7072 0.14758,0.99276c-0.07255,-1.36748 1.0151,-4.35968 1.32663,-5.55546l0.31345,-0.76134c0,0 0.4625,-1.05486 1.23333,-0.42194z" fill="#ffffff" stroke="none" stroke-width="0.5" stroke-linecap="butt"/><path d="M363.93767,85.49713c0,1.01775 -1.01775,1.01775 -1.01775,1.01775l-0.40365,-0.00892c-1.94595,-0.26567 -3.89299,-0.72783 -4.7514,-2.7684c-1.0367,-2.4644 0.86699,-4.94185 3.31543,-5.25983c2.23471,-0.29021 5.10664,1.29378 3.49383,3.90578c-0.8938,1.44755 -2.76693,1.40663 -4.31352,1.36457c0.67946,0.54067 1.63149,0.62439 2.52468,0.74022l0.13464,-0.00892c0,0 1.01775,-0.00002 1.01775,1.01775zM359.6023,81.69872c0.73214,0.00586 1.46707,0.07802 2.19567,0.00864c0.1769,-0.01685 1.88135,-0.60541 1.0163,-1.07384c-1.02745,-0.55637 -2.74398,0.00262 -3.21199,1.0652z" fill="#ffffff" stroke="none" stroke-width="0.5" stroke-linecap="butt"/><path d="M367.10402,84.78779c-0.70698,-1.05603 -1.31051,-2.18898 -0.94934,-3.54426c0.69624,-2.61271 4.03565,-3.47164 6.2234,-2.28341c2.77651,1.50805 2.92798,5.8064 -0.05408,7.28521c-1.11923,0.55502 -2.71897,0.36441 -3.88574,0.17766l-1.07693,-0.90219c0,0 -0.27121,-0.32546 -0.25729,-0.733zM369.19491,84.45922c0.7206,0.11299 1.61373,0.19819 2.23985,-0.07425c1.5967,-0.69479 1.19631,-2.9164 -0.05408,-3.62014c-2.5504,-1.43541 -3.75077,1.22399 -2.38268,3.14121c0,0 0.16783,0.23975 0.19691,0.55319z" fill="#ffffff" stroke="none" stroke-width="0.5" stroke-linecap="butt"/><text transform="translate(241.35966,209.49273) scale(0.5,0.5)" font-size="40" xml:space="preserve" fill="#000000" fill-rule="nonzero" stroke="none" stroke-width="1" stroke-linecap="butt" stroke-linejoin="miter" stroke-miterlimit="10" stroke-dasharray="" stroke-dashoffset="0" font-family="Sans Serif" font-weight="normal" text-anchor="start" style="mix-blend-mode: normal"><tspan x="0" dy="0">Alpha Math Neo</tspan></text><text transform="translate(283.74415,269.53784) scale(0.37809,0.37809)" font-size="40" xml:space="preserve" fill="#000000" fill-rule="nonzero" stroke="none" stroke-width="1" stroke-linecap="butt" stroke-linejoin="miter" stroke-miterlimit="10" stroke-dasharray="" stroke-dashoffset="0" font-family="Sans Serif" font-weight="normal" text-anchor="start" style="mix-blend-mode: normal"><tspan x="0" dy="0">软件初始化</tspan></text></g></g></svg>