<svg version="1.1" xmlns="http://www.w3.org/2000/svg" xmlns:xlink="http://www.w3.org/1999/xlink" width="425.18696" height="48.16582" viewBox="0,0,425.18696,48.16582"><g transform="translate(-27.40652,-155.91709)"><g data-paper-data="{&quot;isPaintingLayer&quot;:true}" fill-rule="nonzero" stroke="none" stroke-linecap="butt" stroke-linejoin="miter" stroke-miterlimit="10" stroke-dasharray="" stroke-dashoffset="0" style="mix-blend-mode: normal"><path d="M428.65646,191.20045c0,-6.60154 5.3516,-11.95315 11.95314,-11.95315c6.60154,0 11.95315,5.35161 11.95315,11.95315c0,6.60154 -5.35161,11.95315 -11.95315,11.95315c-6.60154,0 -11.95314,-5.35161 -11.95314,-11.95315z" fill="#d5dfe6" stroke-width="0"/><path d="M39.40612,204.08291v-48.16582h401.19323v48.16582z" fill="#d5dfe6" stroke-width="0"/><path d="M27.45537,168.13194c0,-6.60154 5.3516,-11.95314 11.95315,-11.95314c6.60154,0 11.95315,5.3516 11.95315,11.95314c0,6.60154 -5.35161,11.95315 -11.95314,11.95315c-6.60154,0 -11.95314,-5.35161 -11.95314,-11.95315z" fill="#d5dfe6" stroke-width="0"/><path d="M27.43856,191.80048c0,-6.60154 5.3516,-11.95315 11.95315,-11.95315c6.60154,0 11.95314,5.35161 11.95314,11.95315c0,6.60154 -5.3516,11.95315 -11.95314,11.95315c-6.60154,0 -11.95314,-5.35161 -11.95314,-11.95315z" fill="#d5dfe6" stroke-width="0"/><path d="M428.61729,168.52501c0,-6.60154 5.35161,-11.95315 11.95315,-11.95315c6.60154,0 11.95314,5.35161 11.95314,11.95315c0,6.60154 -5.3516,11.95315 -11.95314,11.95315c-6.60154,0 -11.95315,-5.35161 -11.95315,-11.95315z" fill="#d5dfe6" stroke-width="0"/><path d="M27.40652,189.45544v-22.22714h425.18696v22.22714z" fill="#d5dfe6" stroke-width="0"/><text transform="translate(37.87436,170.79489) scale(0.21478,0.21478)" font-size="40" xml:space="preserve" fill="#000000" fill-rule="nonzero" stroke="none" stroke-width="1" stroke-linecap="butt" stroke-linejoin="miter" stroke-miterlimit="10" stroke-dasharray="" stroke-dashoffset="0" font-family="Sans Serif" font-weight="normal" text-anchor="start" style="mix-blend-mode: normal"><tspan x="0" dy="0">注意：1.支持+ ,- ,* ,/  ,x^a ,(a)log(x) ,sin,cos,tan,sinh,cosh,tanh,asin,acos,atan</tspan><tspan x="0" dy="48px">         2.log前后括号不要省略，(a)log(x)格式，和正常的不一样。</tspan><tspan x="0" dy="48px">         3. ！英！文！输！入！法！。解析式直接写，不用打y=</tspan></text><text transform="translate(388.42291,169.63568) scale(0.24424,0.24424)" font-size="40" xml:space="preserve" fill="#005cff" fill-rule="nonzero" stroke="none" stroke-width="1" stroke-linecap="butt" stroke-linejoin="miter" stroke-miterlimit="10" stroke-dasharray="" stroke-dashoffset="0" font-family="Sans Serif" font-weight="normal" text-anchor="start" style="mix-blend-mode: normal"><tspan x="0" dy="0">不用打y=…</tspan><tspan x="0" dy="46.150000000000006px">表达式中可以</tspan><tspan x="0" dy="46.150000000000006px">填写参数a</tspan></text></g></g></svg>