<svg version="1.1" xmlns="http://www.w3.org/2000/svg" xmlns:xlink="http://www.w3.org/1999/xlink" width="79.0288" height="92.54519" viewBox="0,0,79.0288,92.54519"><g transform="translate(-280.4856,-163.19365)"><g data-paper-data="{&quot;isPaintingLayer&quot;:true}" fill-rule="nonzero" stroke-linejoin="miter" stroke-miterlimit="10" stroke-dasharray="" stroke-dashoffset="0" style="mix-blend-mode: normal"><path d="M280.4856,172.26714c0,-5.01115 4.16229,-9.07349 9.29674,-9.07349c5.13445,0 9.29674,4.06234 9.29674,9.07349c0,5.01115 -4.16229,9.07349 -9.29674,9.07349c-5.13445,0 -9.29674,-4.06234 -9.29674,-9.07349z" fill="#ffcb84" stroke="none" stroke-width="0" stroke-linecap="butt"/><path d="M289.23799,255.73884v-92.49838h61.52402v92.49838z" fill="#ffcb84" stroke="#dadada" stroke-width="0" stroke-linecap="butt"/><path d="M340.82251,172.50473c0,-5.01115 4.16229,-9.07349 9.29674,-9.07349c5.13445,0 9.29674,4.06234 9.29674,9.07349c0,5.01115 -4.16229,9.07349 -9.29674,9.07349c-5.13445,0 -9.29674,-4.06234 -9.29674,-9.07349z" fill="#ffcb84" stroke="none" stroke-width="0" stroke-linecap="butt"/><path d="M340.83683,246.63932c0,-5.01115 4.16229,-9.07349 9.29674,-9.07349c5.13445,0 9.29674,4.06234 9.29674,9.07349c0,5.01115 -4.16229,9.07349 -9.29674,9.07349c-5.13445,0 -9.29674,-4.06234 -9.29674,-9.07349z" fill="#ffcb84" stroke="none" stroke-width="0" stroke-linecap="butt"/><path d="M280.50744,246.46389c0,-5.01115 4.16229,-9.07349 9.29674,-9.07349c5.13445,0 9.29674,4.06234 9.29674,9.07349c0,5.01115 -4.16229,9.07349 -9.29674,9.07349c-5.13445,0 -9.29674,-4.06234 -9.29674,-9.07349z" fill="#ffcb84" stroke="none" stroke-width="0" stroke-linecap="butt"/><path d="M280.54925,248.22905v-77.34518h78.96516v77.34518z" fill="#ffcb84" stroke="#dadada" stroke-width="0" stroke-linecap="butt"/><path d="M298.978,186.10933c-2.51076,0.69425 -6.67185,-0.50908 -6.84031,-3.85964c-0.10644,-2.11687 1.93964,-3.96865 3.92308,-3.9445c0.8846,0.01077 1.64404,0.42314 2.36821,0.86488c-0.13136,-2.69043 -0.83631,-5.04054 -3.60021,-2.53619c-0.33122,0.30012 -0.58877,0.67264 -0.88316,1.00896c0,0 -0.83045,0.93426 -1.76472,0.10381c-0.93426,-0.83045 -0.10381,-1.76472 -0.10381,-1.76472c1.91194,-2.1244 5.5468,-4.40184 8.02695,-1.43217c1.61316,1.93156 0.76165,6.64248 0.76165,8.99158v0.37383c0,0 0,0.75948 -0.592,1.09445zM297.85109,181.74718c-0.36935,-0.22537 -0.7203,-0.4841 -1.10804,-0.67611c-0.7884,-0.3904 -2.18397,-0.18366 -2.11036,1.02049c0.10004,1.63661 2.55919,1.98379 3.62695,1.62321l0.10607,-0.17055v-0.00288c0,-0.37083 0.02909,-0.94161 0.05397,-1.61113c-0.3248,-0.03676 -0.56859,-0.18304 -0.56859,-0.18304z" fill="#ffffff" stroke="none" stroke-width="0.5" stroke-linecap="butt"/><path d="M286.96567,186.11218c0,-1.38071 1.11929,-2.5 2.5,-2.5c1.38071,0 2.5,1.11929 2.5,2.5c0,1.38071 -1.11929,2.5 -2.5,2.5c-1.38071,0 -2.5,-1.11929 -2.5,-2.5z" fill="#ffffff" stroke="none" stroke-width="0.5" stroke-linecap="butt"/><text transform="translate(309.61433,182.88677) scale(0.27767,0.27767)" font-size="40" xml:space="preserve" fill="#ffffff" fill-rule="nonzero" stroke="none" stroke-width="1" stroke-linecap="butt" stroke-linejoin="miter" stroke-miterlimit="10" stroke-dasharray="" stroke-dashoffset="0" font-family="Sans Serif" font-weight="normal" text-anchor="start" style="mix-blend-mode: normal"><tspan x="0" dy="0">添加点</tspan></text><text transform="translate(309.31897,209.89626) scale(0.27591,0.27591)" font-size="40" xml:space="preserve" fill="#ffffff" fill-rule="nonzero" stroke="none" stroke-width="1" stroke-linecap="butt" stroke-linejoin="miter" stroke-miterlimit="10" stroke-dasharray="" stroke-dashoffset="0" font-family="Sans Serif" font-weight="normal" text-anchor="start" style="mix-blend-mode: normal"><tspan x="0" dy="0">添加线段</tspan></text><text transform="translate(309.57142,236.46749) scale(0.27065,0.27065)" font-size="40" xml:space="preserve" fill="#ffffff" fill-rule="nonzero" stroke="none" stroke-width="1" stroke-linecap="butt" stroke-linejoin="miter" stroke-miterlimit="10" stroke-dasharray="" stroke-dashoffset="0" font-family="Sans Serif" font-weight="normal" text-anchor="start" style="mix-blend-mode: normal"><tspan x="0" dy="0">添加圆</tspan></text><path d="M291.49032,207.95672l6.41691,-5.29395" fill="none" stroke="#ffffff" stroke-width="3" stroke-linecap="round"/><path d="M288.11553,208.43784c0,-1.38071 1.11929,-2.5 2.5,-2.5c1.38071,0 2.5,1.11929 2.5,2.5c0,1.38071 -1.11929,2.5 -2.5,2.5c-1.38071,0 -2.5,-1.11929 -2.5,-2.5z" fill="#ffffff" stroke="none" stroke-width="0.5" stroke-linecap="butt"/><path d="M296.00314,202.04782c0,-1.38071 1.11929,-2.5 2.5,-2.5c1.38071,0 2.5,1.11929 2.5,2.5c0,1.38071 -1.11929,2.5 -2.5,2.5c-1.38071,0 -2.5,-1.11929 -2.5,-2.5z" fill="#ffffff" stroke="none" stroke-width="0.5" stroke-linecap="butt"/><path d="M292.95511,233.16983c0,-1.38071 1.11929,-2.5 2.5,-2.5c1.38071,0 2.5,1.11929 2.5,2.5c0,1.38071 -1.11929,2.5 -2.5,2.5c-1.38071,0 -2.5,-1.11929 -2.5,-2.5z" fill="#ffffff" stroke="none" stroke-width="0.5" stroke-linecap="butt"/><path d="M289.08398,233.30351c0,-3.54396 2.87295,-6.41691 6.41691,-6.41691c3.54396,0 6.41691,2.87295 6.41691,6.41691c0,3.54396 -2.87295,6.41691 -6.41691,6.41691c-3.54396,0 -6.41691,-2.87295 -6.41691,-6.41691z" fill="none" stroke="#ffffff" stroke-width="3" stroke-linecap="butt"/></g></g></svg>