<svg version="1.1" xmlns="http://www.w3.org/2000/svg" xmlns:xlink="http://www.w3.org/1999/xlink" width="425.18696" height="48.16582" viewBox="0,0,425.18696,48.16582"><g transform="translate(-27.40652,-155.91709)"><g data-paper-data="{&quot;isPaintingLayer&quot;:true}" fill-rule="nonzero" stroke="none" stroke-linecap="butt" stroke-linejoin="miter" stroke-miterlimit="10" stroke-dasharray="" stroke-dashoffset="0" style="mix-blend-mode: normal"><path d="M428.65646,191.20045c0,-6.60154 5.3516,-11.95315 11.95314,-11.95315c6.60154,0 11.95315,5.35161 11.95315,11.95315c0,6.60154 -5.35161,11.95315 -11.95315,11.95315c-6.60154,0 -11.95314,-5.35161 -11.95314,-11.95315z" fill="#d5dfe6" stroke-width="0"/><path d="M39.40612,204.08291v-48.16582h401.19323v48.16582z" fill="#d5dfe6" stroke-width="0"/><path d="M27.45537,168.13194c0,-6.60154 5.3516,-11.95314 11.95315,-11.95314c6.60154,0 11.95315,5.3516 11.95315,11.95314c0,6.60154 -5.35161,11.95315 -11.95314,11.95315c-6.60154,0 -11.95314,-5.35161 -11.95314,-11.95315z" fill="#d5dfe6" stroke-width="0"/><path d="M27.43856,191.80048c0,-6.60154 5.3516,-11.95315 11.95315,-11.95315c6.60154,0 11.95314,5.35161 11.95314,11.95315c0,6.60154 -5.3516,11.95315 -11.95314,11.95315c-6.60154,0 -11.95314,-5.35161 -11.95314,-11.95315z" fill="#d5dfe6" stroke-width="0"/><path d="M428.61729,168.52501c0,-6.60154 5.35161,-11.95315 11.95315,-11.95315c6.60154,0 11.95314,5.35161 11.95314,11.95315c0,6.60154 -5.3516,11.95315 -11.95314,11.95315c-6.60154,0 -11.95315,-5.35161 -11.95315,-11.95315z" fill="#d5dfe6" stroke-width="0"/><path d="M27.40652,189.45544v-22.22714h425.18696v22.22714z" fill="#d5dfe6" stroke-width="0"/><text transform="translate(180.1612,184.93136) scale(0.42742,0.42742)" font-size="40" xml:space="preserve" fill="#005cff" fill-rule="nonzero" stroke="none" stroke-width="1" stroke-linecap="butt" stroke-linejoin="miter" stroke-miterlimit="10" stroke-dasharray="" stroke-dashoffset="0" font-family="Sans Serif" font-weight="normal" text-anchor="start" style="mix-blend-mode: normal"><tspan x="0" dy="0">正在校对解析式</tspan></text></g></g></svg>