<svg version="1.1" xmlns="http://www.w3.org/2000/svg" xmlns:xlink="http://www.w3.org/1999/xlink" width="142.32138" height="28.71169" viewBox="0,0,142.32138,28.71169"><g transform="translate(-248.83931,-165.64416)"><g data-paper-data="{&quot;isPaintingLayer&quot;:true}" fill-rule="nonzero" stroke-linejoin="miter" stroke-miterlimit="10" stroke-dasharray="" stroke-dashoffset="0" style="mix-blend-mode: normal"><path d="M248.83931,194.08245v-28.43829h64.17163v28.43829z" fill="#e9f5f9" stroke="#ff0000" stroke-width="0" stroke-linecap="butt"/><text transform="translate(279.96643,183.97828) scale(0.31917,0.31917)" font-size="40" xml:space="preserve" fill="#005292" fill-rule="nonzero" stroke="none" stroke-width="1" stroke-linecap="butt" stroke-linejoin="miter" stroke-miterlimit="10" stroke-dasharray="" stroke-dashoffset="0" font-family="Sans Serif" font-weight="normal" text-anchor="start" style="mix-blend-mode: normal"><tspan x="0" dy="0">分析</tspan></text><path d="M265.37516,170.95418l-5.585,6.68752" fill="none" stroke="#005292" stroke-width="4" stroke-linecap="round"/><path d="M267.91375,178.70305h-8.36388" fill="none" stroke="#005292" stroke-width="4" stroke-linecap="round"/><path d="M267.78626,179.96699l-5.585,6.68752" fill="none" stroke="#005292" stroke-width="4" stroke-linecap="round"/><path d="M326.98906,194.35585v-28.43829h64.17163v28.43829z" fill="#e9f5f9" stroke="#ff0000" stroke-width="0" stroke-linecap="butt"/><text transform="translate(358.11618,184.25168) scale(0.31917,0.31917)" font-size="40" xml:space="preserve" fill="#005292" fill-rule="nonzero" stroke="none" stroke-width="1" stroke-linecap="butt" stroke-linejoin="miter" stroke-miterlimit="10" stroke-dasharray="" stroke-dashoffset="0" font-family="Sans Serif" font-weight="normal" text-anchor="start" style="mix-blend-mode: normal"><tspan x="0" dy="0">求导</tspan></text><path d="M335.33256,181.43544c1.23299,0.2055 1.02749,1.43849 1.02749,1.43849l-0.1723,0.93035c0,0.50483 0,1.00965 0,1.51448c0,0 0,1.25 -1.25,1.25c-1.25,0 -1.25,-1.25 -1.25,-1.25c0,-0.50483 0,-1.00965 0,-1.51448l0.20632,-1.34135c0,0 0.2055,-1.23299 1.43849,-1.02749z" fill="#005292" stroke="none" stroke-width="0.5" stroke-linecap="butt"/><path d="M337.00914,175.98374c1.19473,0.3676 0.82711,1.56233 0.82711,1.56233l-0.33724,1.04877c0.00463,0.41132 0.00927,0.82263 0.0139,1.23395c0,0 0,1.25 -1.25,1.25c-1.25,0 -1.25,-1.25 -1.25,-1.25c0.00463,-0.53523 0.00926,-1.07045 0.01389,-1.60568l0.42,-1.41225c0,0 0.3676,-1.19472 1.56233,-0.82712z" fill="#005292" stroke="none" stroke-width="0.5" stroke-linecap="butt"/><path d="M342.39603,178.2811c-1.19729,0.35918 -1.55647,-0.8381 -1.55647,-0.8381l-0.18727,-0.7131c-0.52076,-1.11523 -0.43917,-1.30131 -1.56074,-0.81772c0,0 -1.19473,0.36761 -1.56233,-0.82711c-0.36761,-1.19473 0.82712,-1.56233 0.82712,-1.56233c2.40506,-0.60738 3.26461,-0.09733 4.49714,2.02191l0.38066,1.17999c0,0 0.35919,1.19728 -0.8381,1.55647z" fill="#005292" stroke="none" stroke-width="0.5" stroke-linecap="butt"/><path d="M344.60261,182.53077c0.19187,0.24038 0.64911,0.96225 -0.07276,1.68412c-0.88388,0.88388 -1.76777,0 -1.76777,0l-0.34572,-0.45472c-0.43238,-0.97023 -0.69082,-2.03212 -0.77486,-3.091c0,0 -0.08315,-1.24723 1.16408,-1.33038c1.24723,-0.08315 1.33038,1.16408 1.33038,1.16408c0.034,0.6916 0.18866,1.3917 0.46665,2.02789z" fill="#005292" stroke="none" stroke-width="0.5" stroke-linecap="butt"/><path d="M349.13669,180.01315c1.23546,0.19007 1.04539,1.42554 1.04539,1.42554l-0.22287,1.38384c-0.54278,1.81695 -1.12311,2.66103 -2.64374,3.79112c0,0 -1.01092,0.73521 -1.74613,-0.27571c-0.73521,-1.01092 0.27571,-1.74613 0.27571,-1.74613c1.12355,-0.79332 1.35245,-1.12034 1.71036,-2.45608l0.15575,-1.07718c0,0 0.19007,-1.23546 1.42554,-1.04539z" fill="#005292" stroke="none" stroke-width="0.5" stroke-linecap="butt"/><path d="M350.07356,173.2208c0.98513,0.49256 0.66822,1.41914 0.57896,1.63247c-0.05032,0.8687 -0.07767,1.73909 -0.07729,2.60916c0,0 0,1.25 -1.25,1.25c-1.25,0 -1.25,-1.25 -1.25,-1.25c0.00042,-1.00461 0.03482,-2.00959 0.09709,-3.01226l0.22419,-0.67035c0,0 0.55902,-1.11803 1.67705,-0.55902z" fill="#005292" stroke="none" stroke-width="0.5" stroke-linecap="butt"/></g></g></svg>