<svg version="1.1" xmlns="http://www.w3.org/2000/svg" xmlns:xlink="http://www.w3.org/1999/xlink" width="78.41762" height="28.43829" viewBox="0,0,78.41762,28.43829"><g transform="translate(-305.80643,-200.69744)"><g data-paper-data="{&quot;isPaintingLayer&quot;:true}" fill-rule="nonzero" stroke-linejoin="miter" stroke-miterlimit="10" stroke-dasharray="" stroke-dashoffset="0" style="mix-blend-mode: normal"><path d="M305.80643,229.13573v-28.43829h64.17163v28.43829z" fill="#e9f5f9" stroke="#ff0000" stroke-width="0" stroke-linecap="butt"/><text transform="translate(332.6781,219.19523) scale(0.31917,0.31917)" font-size="40" xml:space="preserve" fill="#005292" fill-rule="nonzero" stroke="none" stroke-width="1" stroke-linecap="butt" stroke-linejoin="miter" stroke-miterlimit="10" stroke-dasharray="" stroke-dashoffset="0" font-family="Sans Serif" font-weight="normal" text-anchor="start" style="mix-blend-mode: normal"><tspan x="0" dy="0">允许临界</tspan></text><path d="M315.3168,209.11233v11.6421" fill="none" stroke="#005292" stroke-width="5.5" stroke-linecap="round"/><path d="M321.15137,208.99473c0,-1.51879 1.23122,-2.75 2.75,-2.75c1.51878,0 2.75,1.23121 2.75,2.75c0,1.51879 -1.23122,2.75 -2.75,2.75c-1.51878,0 -2.75,-1.23121 -2.75,-2.75z" fill="#005292" stroke="none" stroke-width="0.5" stroke-linecap="butt"/><path d="M321.26898,215.46256c0,-1.51879 1.23122,-2.75 2.75,-2.75c1.51878,0 2.75,1.23121 2.75,2.75c0,1.51879 -1.23122,2.75 -2.75,2.75c-1.51878,0 -2.75,-1.23121 -2.75,-2.75z" fill="#005292" stroke="none" stroke-width="0.5" stroke-linecap="butt"/><path d="M321.15137,221.9304c0,-1.51879 1.23122,-2.75 2.75,-2.75c1.51878,0 2.75,1.23121 2.75,2.75c0,1.51879 -1.23122,2.75 -2.75,2.75c-1.51878,0 -2.75,-1.23121 -2.75,-2.75z" fill="#005292" stroke="none" stroke-width="0.5" stroke-linecap="butt"/></g></g></svg>