<svg version="1.1" xmlns="http://www.w3.org/2000/svg" xmlns:xlink="http://www.w3.org/1999/xlink" width="65.65083" height="28.43829" viewBox="0,0,65.65083,28.43829"><g transform="translate(-305.80643,-200.69744)"><g data-paper-data="{&quot;isPaintingLayer&quot;:true}" fill-rule="nonzero" stroke-linecap="butt" stroke-linejoin="miter" stroke-miterlimit="10" stroke-dasharray="" stroke-dashoffset="0" style="mix-blend-mode: normal"><path d="M305.80643,229.13573v-28.43829h64.17163v28.43829z" fill="#e9f5f9" stroke="#ff0000" stroke-width="0"/><text transform="translate(332.6781,219.19523) scale(0.31917,0.31917)" font-size="40" xml:space="preserve" fill="#005292" fill-rule="nonzero" stroke="none" stroke-width="1" stroke-linecap="butt" stroke-linejoin="miter" stroke-miterlimit="10" stroke-dasharray="" stroke-dashoffset="0" font-family="Sans Serif" font-weight="normal" text-anchor="start" style="mix-blend-mode: normal"><tspan x="0" dy="0">低精度</tspan></text><path d="M315.5462,223.77557c-0.68484,0 -0.68484,-0.68484 -0.68484,-0.68484v-0.67422c0.00085,-1.66662 -0.33777,-4.42354 -2.53922,-4.4697c0,0 -0.68332,-0.04556 -0.63776,-0.72887c0.03267,-0.49001 0.3933,-0.60521 0.59472,-0.63117c0.18208,-0.10443 0.37755,-0.10443 0.37755,-0.10443l0.05397,0.00601c1.65493,-0.13719 2.10718,-2.85283 2.10258,-4.18523c0,0 0,-0.68484 0.68484,-0.68484c0.68484,0 0.68484,0.68484 0.68484,0.68484c-0.00515,1.71322 -0.5127,3.88856 -1.90559,4.94906c1.49458,1.08146 1.95284,3.24473 1.95375,5.16434v0.67422c0,0 0,0.68484 -0.68484,0.68484z" fill="#005292" stroke="none" stroke-width="0.5"/><path d="M315.72134,223.72169c0.7,0 0.7,-0.68484 0.7,-0.68484v-0.67422c-0.00087,-1.66662 0.34525,-4.42354 2.59543,-4.4697c0,0 0.69845,-0.04556 0.65189,-0.72887c-0.03339,-0.49001 -0.402,-0.60521 -0.60789,-0.63117c-0.18611,-0.10443 -0.38591,-0.10443 -0.38591,-0.10443l-0.05516,0.00601c-1.69157,-0.13719 -2.15383,-2.85283 -2.14913,-4.18523c0,0 0,-0.68484 -0.7,-0.68484c-0.7,0 -0.7,0.68484 -0.7,0.68484c0.00526,1.71322 0.52405,3.88856 1.94779,4.94906c-1.52767,1.08146 -1.99607,3.24473 -1.99701,5.16434v0.67422c0,0 0,0.68484 0.7,0.68484z" fill="#005292" stroke="none" stroke-width="0.5"/><path d="M321.58541,216.82084c-0.51229,0 -0.5123,-0.51229 -0.5123,-0.51229v-0.50436c0.00063,-1.24672 -0.25267,-3.30903 -1.89946,-3.34357c0,0 -0.51116,-0.03408 -0.47708,-0.54524c0.02444,-0.36655 0.29421,-0.45272 0.44489,-0.47214c0.13621,-0.07812 0.28243,-0.07812 0.28243,-0.07812l0.04037,0.0045c1.23797,-0.10263 1.57628,-2.13407 1.57284,-3.13077c0,0 0,-0.51229 0.5123,-0.51229c0.51229,0 0.51229,0.51229 0.51229,0.51229c-0.00385,1.28158 -0.38353,2.90884 -1.42548,3.70216c1.11802,0.80898 1.46082,2.42723 1.46151,3.86319v0.50436c0,0 0,0.51229 -0.51229,0.51229z" fill="#005292" stroke="none" stroke-width="0.5"/><path d="M321.71642,216.78054c0.52364,0 0.52364,-0.5123 0.52364,-0.5123v-0.50435c-0.00065,-1.24672 0.25826,-3.30903 1.94152,-3.34357c0,0 0.52248,-0.03408 0.48764,-0.54524c-0.02498,-0.36655 -0.30072,-0.45273 -0.45473,-0.47215c-0.13922,-0.07812 -0.28868,-0.07812 -0.28868,-0.07812l-0.04126,0.00449c-1.26538,-0.10263 -1.61118,-2.13406 -1.60766,-3.13077c0,0 0,-0.5123 -0.52364,-0.5123c-0.52364,0 -0.52364,0.5123 -0.52364,0.5123c0.00393,1.28158 0.39202,2.90884 1.45704,3.70215c-1.14278,0.80898 -1.49317,2.42723 -1.49387,3.86319v0.50435c0,0 0,0.5123 0.52364,0.5123z" fill="#005292" stroke="none" stroke-width="0.5"/></g></g></svg>