<svg version="1.1" xmlns="http://www.w3.org/2000/svg" xmlns:xlink="http://www.w3.org/1999/xlink" width="25" height="64.01029" viewBox="0,0,25,64.01029"><g transform="translate(-227.78221,-150.08589)"><g data-paper-data="{&quot;isPaintingLayer&quot;:true}" fill-rule="nonzero" stroke-linejoin="miter" stroke-miterlimit="10" stroke-dasharray="" stroke-dashoffset="0" style="mix-blend-mode: normal"><path d="M240.28221,162.58589v39.01029" fill="none" stroke="#003141" stroke-width="25" stroke-linecap="round"/><path d="M235.41919,162.94662h9.30314" fill="none" stroke="#ffffff" stroke-width="3" stroke-linecap="round"/><path d="M240.13696,168.24107l-0.19382,-10.65984" fill="none" stroke="#ffffff" stroke-width="3" stroke-linecap="round"/><path d="M244.85472,202.41877h-9.10933" fill="none" stroke="#ffffff" stroke-width="3" stroke-linecap="round"/><path d="M235.06143,183.83486c0,-2.74555 2.22571,-4.97127 4.97127,-4.97127c2.74555,0 4.97127,2.22571 4.97127,4.97127c0,2.74555 -2.22571,4.97127 -4.97127,4.97127c-2.74555,0 -4.97127,-2.22571 -4.97127,-4.97127z" fill="none" stroke="#ffffff" stroke-width="2" stroke-linecap="butt"/><path d="M240.00001,177.29536l0.06749,3.23934" fill="none" stroke="#ffffff" stroke-width="2" stroke-linecap="round"/><path d="M233.52133,183.84153h3.17186" fill="none" stroke="#ffffff" stroke-width="2" stroke-linecap="round"/><path d="M246.47869,184.11147h-2.9694" fill="none" stroke="#ffffff" stroke-width="2" stroke-linecap="round"/><path d="M240.00001,187.28333v2.83442" fill="none" stroke="#ffffff" stroke-width="2" stroke-linecap="round"/><path d="M239.00001,184.04399c0,-0.55228 0.44772,-1 1,-1c0.55228,0 1,0.44772 1,1c0,0.55228 -0.44772,1 -1,1c-0.55228,0 -1,-0.44772 -1,-1z" fill="#ffffff" stroke="none" stroke-width="0.5" stroke-linecap="butt"/></g></g></svg>