<svg version="1.1" xmlns="http://www.w3.org/2000/svg" xmlns:xlink="http://www.w3.org/1999/xlink" width="65.65083" height="28.43829" viewBox="0,0,65.65083,28.43829"><g transform="translate(-305.80643,-200.69744)"><g data-paper-data="{&quot;isPaintingLayer&quot;:true}" fill-rule="nonzero" stroke-linecap="butt" stroke-linejoin="miter" stroke-miterlimit="10" stroke-dasharray="" stroke-dashoffset="0" style="mix-blend-mode: normal"><path d="M305.80643,229.13573v-28.43829h64.17163v28.43829z" fill="#00232e" stroke="#ff0000" stroke-width="0"/><text transform="translate(332.6781,219.19523) scale(0.31917,0.31917)" font-size="40" xml:space="preserve" fill="#e9f5f9" fill-rule="nonzero" stroke="none" stroke-width="1" stroke-linecap="butt" stroke-linejoin="miter" stroke-miterlimit="10" stroke-dasharray="" stroke-dashoffset="0" font-family="Sans Serif" font-weight="normal" text-anchor="start" style="mix-blend-mode: normal"><tspan x="0" dy="0">中精度</tspan></text><path d="M315.5462,223.77557c-0.68484,0 -0.68484,-0.68484 -0.68484,-0.68484v-0.67422c0.00085,-1.66662 -0.33777,-4.42354 -2.53922,-4.4697c0,0 -0.68332,-0.04556 -0.63776,-0.72887c0.03267,-0.49001 0.3933,-0.60521 0.59472,-0.63117c0.18208,-0.10443 0.37755,-0.10443 0.37755,-0.10443l0.05397,0.00601c1.65493,-0.13719 2.10718,-2.85283 2.10258,-4.18523c0,0 0,-0.68484 0.68484,-0.68484c0.68484,0 0.68484,0.68484 0.68484,0.68484c-0.00515,1.71322 -0.5127,3.88856 -1.90559,4.94906c1.49458,1.08146 1.95284,3.24473 1.95375,5.16434v0.67422c0,0 0,0.68484 -0.68484,0.68484z" fill="#e9f5f9" stroke="none" stroke-width="0.5"/><path d="M315.72135,223.7217c-0.7,0 -0.7,-0.68484 -0.7,-0.68484v-0.67422c0.00094,-1.91961 0.46934,-4.08288 1.99701,-5.16434c-1.42374,-1.0605 -1.94253,-3.23584 -1.94779,-4.94906c0,0 0,-0.68484 0.7,-0.68484c0.7,0 0.7,0.68484 0.7,0.68484c-0.0047,1.3324 0.45756,4.04804 2.14913,4.18523l0.05516,-0.00601c0,0 0.1998,0 0.38591,0.10443c0.20589,0.02596 0.5745,0.14116 0.60789,0.63117c0.04656,0.68331 -0.65189,0.72887 -0.65189,0.72887c-2.25018,0.04616 -2.5963,2.80308 -2.59543,4.4697v0.67422c0,0 0,0.68484 -0.7,0.68484z" fill="#e9f5f9" stroke="none" stroke-width="0.5"/><path d="M321.58541,216.82084c-0.51229,0 -0.5123,-0.51229 -0.5123,-0.51229v-0.50436c0.00063,-1.24672 -0.25267,-3.30903 -1.89946,-3.34357c0,0 -0.51116,-0.03408 -0.47708,-0.54524c0.02444,-0.36655 0.29421,-0.45272 0.44489,-0.47214c0.13621,-0.07812 0.28243,-0.07812 0.28243,-0.07812l0.04037,0.0045c1.23797,-0.10263 1.57628,-2.13407 1.57284,-3.13077c0,0 0,-0.51229 0.5123,-0.51229c0.51229,0 0.51229,0.51229 0.51229,0.51229c-0.00385,1.28158 -0.38353,2.90884 -1.42548,3.70216c1.11802,0.80898 1.46082,2.42723 1.46151,3.86319v0.50436c0,0 0,0.51229 -0.51229,0.51229z" fill="#e9f5f9" stroke="none" stroke-width="0.5"/><path d="M321.71642,216.78052c-0.52364,0 -0.52364,-0.5123 -0.52364,-0.5123v-0.50435c0.0007,-1.43596 0.35109,-3.05421 1.49387,-3.86319c-1.06502,-0.79331 -1.45311,-2.42057 -1.45704,-3.70215c0,0 0,-0.5123 0.52364,-0.5123c0.52364,0 0.52364,0.5123 0.52364,0.5123c-0.00352,0.99671 0.34228,3.02814 1.60766,3.13077l0.04126,-0.00449c0,0 0.14946,0 0.28868,0.07812c0.15401,0.01942 0.42975,0.1056 0.45473,0.47215c0.03484,0.51116 -0.48764,0.54524 -0.48764,0.54524c-1.68326,0.03454 -1.94217,2.09685 -1.94152,3.34357v0.50435c0,0 0,0.5123 -0.52364,0.5123z" fill="#e9f5f9" stroke="none" stroke-width="0.5"/></g></g></svg>